# xmcd
#
# Track frame offsets:
#	150
#	18287
#	36350
#	53822
#	66882
#	78762
#	95977
#	111182
#	134242
#	153187
#	169057
#	180987
#	197987
#
# Disc length: 2934 seconds
#
# Revision: 1
# Processed by: cddbd v1.5PL3 Copyright (c) Steve Scherf et al.
# Submitted via: CDex 1.50Beta5
#
DISCID=b00b740d
DTITLE=flower companyz - ヤングフラワーズ
DYEAR=1900
DGENRE=
TTITLE0=最高の夏
TTITLE1=恋をしましょう
TTITLE2=くるったバナナ
TTITLE3=俺たちハタチ族
TTITLE4=フェイクでいこう
TTITLE5=ライトを消して走れ
TTITLE6=雨よ降れ
TTITLE7=靴下
TTITLE8=冬のにおい
TTITLE9=アイ・アム・バーニング
TTITLE10=プラスチックにしてくれ
TTITLE11=孤高の英雄
TTITLE12=春色の道
EXTD=
EXTT0=
EXTT1=
EXTT2=
EXTT3=
EXTT4=
EXTT5=
EXTT6=
EXTT7=
EXTT8=
EXTT9=
EXTT10=
EXTT11=
EXTT12=
PLAYORDER=
